<?xml version="1.0" encoding="UTF-8"?><svg id="Layer_2" xmlns="http://www.w3.org/2000/svg" viewBox="0 0 130.22 17.71"><defs><style>.cls-1{fill:#3d528d;}</style></defs><g id="Layer_1-2"><path class="cls-1" d="M.71,14.71h1.67c.39,0,.71-.1.94-.29.23-.19.35-.44.35-.76v-.38c0-.3-.12-.54-.35-.74-.24-.2-.55-.3-.93-.3H.71v-.67h1.67c.44,0,.83.08,1.17.23.34.16.61.36.79.62.19.26.28.55.28.86v.38c0,.35-.09.67-.28.96-.19.29-.45.51-.79.68-.34.16-.73.25-1.17.25H.71v-.84ZM.47,11.4h1.61c.39,0,.7-.09.94-.27.23-.18.35-.41.35-.7v-.4c0-.28-.11-.51-.35-.69-.23-.18-.55-.27-.94-.27H.47v-.84h1.61c.43,0,.82.08,1.16.23.34.16.61.37.8.65.19.28.28.58.28.92v.4c0,.3-.09.58-.28.82-.19.24-.45.44-.79.58-.34.14-.73.21-1.17.21H.47v-.64ZM0,8.23h.96v7.32h-.96v-7.32Z"/><polygon class="cls-1" points="7.3 15.37 5.28 9.98 6.19 9.98 7.74 14.19 9.29 9.98 10.19 9.98 7.33 17.71 6.43 17.71 7.3 15.37"/><rect class="cls-1" x="33.49" y=".62" width="2.49" height="14.92"/><path class="cls-1" d="M47.32,6.28V.62h-2.49v5.69c0,.91-.5,1.71-1.24,2.14-.37.22-.79.34-1.25.34s-.88-.12-1.25-.34c-.74-.43-1.24-1.23-1.24-2.15v-2.49h0V.62h-2.49v5.68c0,1.84,1,3.45,2.49,4.31h0s0,0,0,0h0c.38.23.8.4,1.24.51v.16h0v4.27h2.49v-4.43c.44-.11.86-.28,1.24-.51h0s0,0,0,0h0c.56-.32,1.05-.75,1.44-1.26.66-.84,1.05-1.9,1.05-3.05v-.02Z"/><path class="cls-1" d="M29.27,1.29c-.73-.42-1.58-.67-2.49-.67v2.49c1.38,0,2.49,1.11,2.49,2.49v4.97c0,1.37-1.11,2.49-2.49,2.49s-2.49-1.12-2.49-2.49v-2.49h-2.49v2.49c0,1.84,1,3.45,2.49,4.31h0c.73.43,1.58.67,2.49.67s1.76-.24,2.49-.67h0c1.49-.86,2.49-2.47,2.49-4.31v-4.97c0-1.84-1-3.45-2.49-4.31"/><path class="cls-1" d="M26.78,11.82c.69,0,1.24-.56,1.24-1.24v-.15c-.08-.62-.61-1.09-1.24-1.09s-1.16.48-1.24,1.09v.15c0,.69.55,1.24,1.24,1.24"/><path class="cls-1" d="M54.99,2.91c.15-.14.22-.33.22-.58,0-.53-.3-.8-.9-.8h-.87v1.6h.87c.3,0,.53-.07.68-.21M56.14,3.15c-.14.26-.36.46-.65.62-.3.16-.67.24-1.12.24h-.92v2.11h-1.1V.62h2.02c.42,0,.79.07,1.09.22.3.15.52.35.67.61.15.26.23.55.23.87,0,.29-.07.57-.21.83"/><path class="cls-1" d="M59.73,3.52c0-.28-.11-.51-.31-.68-.2-.17-.44-.26-.73-.26-.27,0-.5.08-.69.25-.19.17-.3.4-.34.69h2.07ZM60.84,4.26h-3.19c.03.31.14.56.33.74.19.18.43.27.71.27.41,0,.7-.17.87-.53h1.19c-.13.42-.37.76-.72,1.03-.36.27-.79.4-1.31.4-.42,0-.8-.09-1.13-.28-.33-.19-.59-.45-.78-.79-.19-.34-.28-.73-.28-1.18s.09-.85.28-1.19c.18-.34.44-.6.77-.79.33-.18.71-.28,1.14-.28s.79.09,1.11.27c.33.18.58.43.76.76.18.33.27.7.27,1.13,0,.16-.01.3-.03.42"/><path class="cls-1" d="M63.01,1.89c.23-.13.49-.2.78-.2v1.16h-.29c-.35,0-.61.08-.78.24-.18.16-.26.44-.26.85v2.17h-1.1V1.75h1.1v.68c.14-.23.33-.41.55-.54"/><path class="cls-1" d="M66.22,2.66h-.76v3.45h-1.12v-3.45h-.49v-.9h.49v-.22c0-.53.15-.93.46-1.18.31-.25.76-.37,1.38-.35v.93c-.27,0-.45.04-.56.13-.1.1-.16.26-.16.51v.18h.76v.9Z"/><path class="cls-1" d="M69.13,5.08c.18-.1.32-.24.42-.44.11-.19.16-.43.16-.71,0-.41-.11-.73-.33-.95-.22-.22-.48-.33-.8-.33s-.58.11-.79.33c-.21.22-.32.54-.32.95s.1.73.31.96c.21.22.47.33.78.33.2,0,.39-.05.56-.15M67.43,5.9c-.34-.19-.6-.45-.79-.79-.19-.34-.29-.73-.29-1.18s.1-.84.29-1.18c.2-.34.47-.6.81-.79.34-.19.72-.28,1.14-.28s.8.09,1.14.28c.34.19.61.45.8.79.2.34.3.73.3,1.18s-.1.84-.3,1.18c-.2.34-.48.6-.82.79-.34.19-.73.28-1.15.28s-.8-.09-1.13-.28"/><path class="cls-1" d="M72.99,1.89c.23-.13.49-.2.78-.2v1.16h-.29c-.35,0-.61.08-.78.24-.18.16-.26.44-.26.85v2.17h-1.1V1.75h1.1v.68c.14-.23.33-.41.55-.54"/><path class="cls-1" d="M80.91,2.18c.33.33.49.78.49,1.37v2.56h-1.1v-2.41c0-.34-.09-.6-.26-.78-.17-.18-.41-.27-.71-.27s-.54.09-.71.27-.26.44-.26.78v2.41h-1.1v-2.41c0-.34-.09-.6-.26-.78-.17-.18-.41-.27-.71-.27s-.54.09-.72.27-.26.44-.26.78v2.41h-1.1V1.75h1.1v.53c.14-.18.32-.33.55-.43.22-.1.47-.16.74-.16.34,0,.64.07.91.22.27.14.47.35.62.62.14-.25.35-.45.62-.61.27-.15.56-.23.88-.23.54,0,.97.16,1.29.49"/><path class="cls-1" d="M85.12,3.25c-.11-.19-.25-.34-.42-.44-.18-.1-.37-.15-.57-.15s-.39.05-.57.15c-.17.1-.31.24-.42.44-.11.19-.16.42-.16.68s.05.49.16.69c.11.2.25.35.42.45.18.1.36.16.56.16s.4-.05.57-.15c.18-.1.32-.25.42-.44.1-.19.16-.42.16-.69s-.05-.5-.16-.69M82.11,2.75c.17-.34.41-.6.72-.79.3-.18.64-.28,1.01-.28.33,0,.61.07.85.2.24.13.44.3.59.49v-.62h1.11v4.36h-1.11v-.64c-.14.2-.34.37-.59.51-.25.13-.54.2-.86.2-.37,0-.7-.09-1-.28-.3-.19-.54-.45-.72-.8-.18-.34-.26-.74-.26-1.18s.09-.83.26-1.17"/><path class="cls-1" d="M90.83,2.18c.32.33.48.78.48,1.37v2.56h-1.1v-2.41c0-.35-.09-.61-.26-.8-.17-.19-.41-.28-.71-.28s-.54.09-.72.28c-.17.19-.26.45-.26.8v2.41h-1.1V1.75h1.1v.54c.15-.19.33-.34.56-.44.23-.11.48-.16.75-.16.52,0,.94.16,1.26.49"/><path class="cls-1" d="M92.03,2.75c.18-.34.44-.6.76-.79.33-.19.7-.28,1.12-.28.54,0,.99.13,1.34.4.35.27.59.65.71,1.14h-1.19c-.06-.19-.17-.34-.32-.44-.15-.11-.33-.16-.56-.16-.31,0-.56.11-.75.34-.18.23-.28.55-.28.97s.09.73.28.96c.18.23.43.34.75.34.45,0,.74-.2.87-.6h1.19c-.12.47-.36.85-.72,1.12-.36.28-.8.42-1.34.42-.42,0-.79-.09-1.12-.28-.33-.19-.58-.45-.76-.79-.18-.34-.28-.73-.28-1.18s.09-.85.28-1.18"/><path class="cls-1" d="M99.38,3.52c0-.28-.11-.51-.31-.68-.2-.17-.44-.26-.73-.26-.27,0-.5.08-.69.25-.19.17-.3.4-.34.69h2.07ZM100.49,4.26h-3.19c.03.31.14.56.33.74.19.18.43.27.71.27.41,0,.7-.17.87-.53h1.19c-.13.42-.37.76-.72,1.03-.36.27-.79.4-1.31.4-.42,0-.79-.09-1.13-.28-.33-.19-.59-.45-.78-.79-.19-.34-.28-.73-.28-1.18s.09-.85.28-1.19c.18-.34.44-.6.77-.79.33-.18.71-.28,1.14-.28s.79.09,1.11.27c.33.18.58.43.76.76.18.33.27.7.27,1.13,0,.16-.01.3-.03.42"/><path class="cls-1" d="M55.28,14.27l-1.35-1.34c-.51.22-.76.55-.76.96,0,.24.09.43.27.59.18.16.41.24.71.24.43,0,.81-.15,1.14-.46M56.57,15.55l-.6-.59c-.51.46-1.13.69-1.86.69-.4,0-.76-.07-1.07-.21-.31-.14-.54-.34-.71-.59-.17-.25-.25-.55-.25-.89,0-.36.1-.69.31-.97.2-.29.51-.52.9-.7-.14-.17-.24-.34-.31-.5s-.1-.33-.1-.51c0-.25.07-.48.2-.68.13-.2.32-.36.56-.48.24-.11.53-.17.85-.17s.61.06.85.19c.24.12.41.29.53.5.11.21.16.44.15.7h-1.07c0-.17-.04-.31-.13-.4-.09-.09-.21-.14-.36-.14s-.27.04-.37.13c-.1.09-.14.2-.14.33s.04.26.12.39c.08.13.21.29.39.47l1.38,1.37s.02-.02.02-.03c0-.01.01-.02.02-.03l.45-.75h1.15l-.55.97c-.1.21-.22.4-.34.58l1.33,1.31h-1.35Z"/><path class="cls-1" d="M59.81,11.35c.24-.43.58-.76,1-1s.9-.36,1.42-.36c.61,0,1.15.16,1.61.47.46.31.78.75.97,1.31h-1.27c-.12-.26-.3-.46-.53-.59s-.49-.2-.79-.2c-.32,0-.6.08-.85.22-.25.15-.44.36-.58.63-.14.27-.21.59-.21.96s.07.68.21.96c.14.28.33.49.58.64.25.15.53.23.85.23.3,0,.56-.07.79-.2.23-.13.4-.33.53-.59h1.27c-.18.56-.5,1-.96,1.31-.46.31-1,.47-1.61.47-.52,0-1-.12-1.42-.36-.42-.24-.76-.57-1-1-.24-.42-.36-.91-.36-1.45s.12-1.02.36-1.45"/><path class="cls-1" d="M67.1,11.33c.23-.13.49-.2.78-.2v1.16h-.29c-.35,0-.61.08-.78.24-.18.16-.26.44-.26.85v2.17h-1.1v-4.36h1.1v.68c.14-.23.33-.41.55-.54"/><path class="cls-1" d="M71.22,12.96c0-.28-.11-.51-.31-.68-.2-.17-.44-.26-.73-.26-.27,0-.5.08-.69.25-.19.17-.3.4-.34.69h2.07ZM72.33,13.7h-3.19c.03.31.14.56.33.74.19.18.43.27.71.27.41,0,.7-.17.87-.53h1.19c-.13.42-.37.76-.72,1.03-.36.27-.79.4-1.31.4-.42,0-.8-.09-1.13-.28-.33-.19-.59-.45-.78-.79-.19-.34-.28-.73-.28-1.18s.09-.85.28-1.19c.18-.34.44-.6.77-.79.33-.18.71-.28,1.14-.28s.79.09,1.11.27c.33.18.58.43.76.76.18.33.27.7.27,1.13,0,.16-.01.3-.03.42"/><path class="cls-1" d="M75.84,12.68c-.11-.19-.25-.34-.42-.44-.18-.1-.37-.15-.57-.15s-.39.05-.57.15c-.17.1-.31.24-.42.44-.11.19-.16.42-.16.68s.05.49.16.69c.11.2.25.35.43.45.18.1.36.16.56.16s.39-.05.57-.15c.18-.1.32-.25.42-.44.1-.19.16-.42.16-.69s-.05-.5-.16-.69M72.83,12.18c.17-.34.41-.6.71-.79.3-.18.64-.28,1.01-.28.32,0,.61.07.85.2.24.13.44.3.59.49v-.62h1.11v4.36h-1.11v-.64c-.14.2-.34.37-.59.51-.25.13-.54.2-.86.2-.37,0-.7-.1-1-.28-.3-.19-.54-.45-.71-.8-.18-.34-.26-.74-.26-1.18s.09-.83.26-1.17"/><path class="cls-1" d="M79.15,12.1v2.11c0,.15.04.25.11.32.07.07.19.1.36.1h.51v.93h-.69c-.93,0-1.39-.45-1.39-1.35v-2.1h-.52v-.9h.52v-1.08h1.11v1.08h.98v.9h-.98Z"/><path class="cls-1" d="M81.72,15.55h-1.1v-4.36h1.1v4.36ZM80.69,10.49c-.13-.12-.19-.28-.19-.46s.06-.34.19-.46c.13-.12.29-.18.48-.18s.36.06.49.18c.13.12.19.28.19.46s-.06.34-.19.46c-.13.12-.29.19-.49.19s-.35-.06-.48-.19"/><polygon class="cls-1" points="84.3 14.53 85.4 11.19 86.57 11.19 84.96 15.55 83.63 15.55 82.02 11.19 83.2 11.19 84.3 14.53"/><path class="cls-1" d="M89.8,12.96c0-.28-.11-.51-.31-.68-.2-.17-.44-.26-.73-.26-.27,0-.5.08-.69.25-.19.17-.3.4-.34.69h2.07ZM90.91,13.7h-3.19c.03.31.14.56.33.74.19.18.43.27.71.27.41,0,.7-.17.87-.53h1.19c-.13.42-.37.76-.72,1.03-.36.27-.79.4-1.31.4-.42,0-.79-.09-1.13-.28-.33-.19-.59-.45-.78-.79-.19-.34-.28-.73-.28-1.18s.09-.85.28-1.19c.18-.34.44-.6.77-.79.33-.18.71-.28,1.14-.28s.79.09,1.11.27c.33.18.58.43.76.76.18.33.27.7.27,1.13,0,.16-.01.3-.03.42"/><polygon class="cls-1" points="98.98 10.06 98.98 15.55 97.88 15.55 97.88 11.98 96.41 15.55 95.57 15.55 94.09 11.98 94.09 15.55 92.99 15.55 92.99 10.06 94.24 10.06 95.99 14.14 97.73 10.06 98.98 10.06"/><path class="cls-1" d="M102.74,12.68c-.11-.19-.25-.34-.42-.44-.18-.1-.37-.15-.57-.15s-.39.05-.57.15c-.17.1-.31.24-.42.44-.11.19-.16.42-.16.68s.05.49.16.69c.11.2.25.35.42.45.18.1.36.16.56.16s.4-.05.57-.15c.18-.1.32-.25.42-.44.1-.19.16-.42.16-.69s-.05-.5-.16-.69M99.73,12.18c.17-.34.41-.6.72-.79.3-.18.64-.28,1.01-.28.33,0,.61.07.85.2.24.13.44.3.59.49v-.62h1.11v4.36h-1.11v-.64c-.14.2-.34.37-.59.51-.25.13-.54.2-.86.2-.37,0-.7-.1-1-.28-.3-.19-.54-.45-.72-.8-.18-.34-.26-.74-.26-1.18s.09-.83.26-1.17"/><path class="cls-1" d="M106.43,11.33c.23-.13.49-.2.78-.2v1.16h-.29c-.35,0-.61.08-.78.24-.18.16-.26.44-.26.85v2.17h-1.1v-4.36h1.1v.68c.14-.23.33-.41.55-.54"/><polygon class="cls-1" points="110.21 15.55 108.74 13.69 108.74 15.55 107.64 15.55 107.64 9.73 108.74 9.73 108.74 13.04 110.2 11.19 111.63 11.19 109.71 13.38 111.65 15.55 110.21 15.55"/><path class="cls-1" d="M114.83,12.96c0-.28-.11-.51-.31-.68-.2-.17-.44-.26-.73-.26-.27,0-.5.08-.69.25-.19.17-.3.4-.34.69h2.07ZM115.94,13.7h-3.19c.03.31.14.56.33.74.19.18.43.27.71.27.41,0,.7-.17.87-.53h1.19c-.13.42-.37.76-.72,1.03-.36.27-.79.4-1.31.4-.42,0-.79-.09-1.13-.28-.33-.19-.59-.45-.78-.79-.19-.34-.28-.73-.28-1.18s.09-.85.28-1.19c.18-.34.44-.6.77-.79.33-.18.71-.28,1.14-.28s.79.09,1.11.27c.33.18.58.43.76.76.18.33.27.7.27,1.13,0,.16-.01.3-.03.42"/><path class="cls-1" d="M117.74,12.1v2.11c0,.15.03.25.11.32.07.07.19.1.36.1h.51v.93h-.69c-.93,0-1.39-.45-1.39-1.35v-2.1h-.52v-.9h.52v-1.08h1.11v1.08h.98v.9h-.98Z"/><path class="cls-1" d="M120.3,15.55h-1.1v-4.36h1.1v4.36ZM119.28,10.49c-.13-.12-.19-.28-.19-.46s.06-.34.19-.46c.13-.12.29-.18.48-.18s.36.06.49.18c.13.12.19.28.19.46s-.06.34-.19.46c-.13.12-.29.19-.49.19s-.35-.06-.48-.19"/><path class="cls-1" d="M124.75,11.62c.32.33.48.78.48,1.37v2.56h-1.1v-2.41c0-.35-.09-.61-.26-.8-.17-.19-.41-.28-.71-.28s-.54.09-.72.28c-.17.19-.26.45-.26.8v2.41h-1.1v-4.36h1.1v.54c.15-.19.33-.34.56-.44.23-.11.48-.16.75-.16.52,0,.94.16,1.26.49"/><path class="cls-1" d="M128.96,12.68c-.11-.19-.25-.34-.42-.44-.18-.1-.37-.15-.57-.15s-.39.05-.57.15c-.17.1-.31.24-.42.44-.11.19-.16.42-.16.68s.05.49.16.69c.11.2.25.35.42.45.18.1.36.16.56.16s.39-.05.57-.15c.18-.1.32-.25.42-.44.1-.19.16-.42.16-.69s-.05-.5-.16-.69M128.53,11.31c.25.13.44.29.58.5v-.62h1.11v4.39c0,.4-.08.76-.24,1.08-.16.32-.41.57-.73.76-.33.18-.72.28-1.18.28-.62,0-1.13-.14-1.52-.43-.4-.29-.62-.68-.67-1.18h1.09c.06.2.18.36.37.47.19.12.42.18.7.18.32,0,.58-.1.78-.29.2-.19.3-.48.3-.87v-.68c-.14.2-.34.38-.59.51-.25.14-.53.2-.85.2-.37,0-.7-.1-1.01-.28s-.54-.45-.72-.8c-.18-.34-.26-.74-.26-1.18s.09-.83.26-1.17c.17-.34.41-.6.72-.79.3-.18.64-.28,1.01-.28.33,0,.61.06.86.19"/></g></svg>