<?xml version="1.0" encoding="UTF-8"?><svg id="Layer_2" xmlns="http://www.w3.org/2000/svg" viewBox="0 0 113.32 19.68"><defs><style>.cls-1{fill:#abe1fa;}</style></defs><g id="Layer_1-2"><path class="cls-1" d="M73.37,10.18c-.02-1.01-.39-1.82-1.1-2.43s-1.58-.91-2.61-.91c-.98,0-1.8.3-2.46.89-.67.59-1.07,1.41-1.22,2.46h7.39ZM77.33,12.82h-11.39c.09,1.12.49,2.01,1.18,2.64s1.55.96,2.56.96c1.46,0,2.5-.63,3.12-1.88h4.25c-.45,1.5-1.31,2.73-2.59,3.7-1.27.97-2.84,1.45-4.69,1.45-1.5,0-2.84-.33-4.04-1-1.19-.66-2.12-1.61-2.78-2.83-.66-1.22-1-2.62-1-4.22s.33-3.03.98-4.24c.66-1.22,1.57-2.15,2.76-2.81,1.18-.66,2.54-.98,4.08-.98s2.81.32,3.98.96c1.17.64,2.08,1.54,2.73,2.71.65,1.17.97,2.52.97,4.03,0,.56-.04,1.07-.11,1.52"/><path class="cls-1" d="M84.31,4.44c.82-.47,1.75-.7,2.8-.7v4.13h-1.04c-1.24,0-2.17.29-2.8.87-.63.58-.94,1.59-.94,3.04v7.76h-3.94V3.96h3.94v2.42c.51-.83,1.17-1.47,1.98-1.94"/><path class="cls-1" d="M93.86,7.09v7.53c0,.53.13.9.38,1.14.25.24.68.35,1.28.35h1.83v3.32h-2.47c-3.32,0-4.98-1.61-4.98-4.83v-7.51h-1.86v-3.23h1.86V0h3.96v3.85h3.49v3.23h-3.49Z"/><path class="cls-1" d="M107.2,15.69c.63-.35,1.13-.87,1.5-1.56.38-.69.56-1.54.56-2.53,0-1.48-.39-2.62-1.17-3.42-.78-.8-1.73-1.2-2.85-1.2s-2.07.4-2.83,1.2c-.76.8-1.14,1.94-1.14,3.42s.37,2.62,1.11,3.42c.74.8,1.67,1.2,2.8,1.2.71,0,1.38-.17,2.01-.52M101.14,18.65c-1.2-.66-2.14-1.61-2.83-2.83-.68-1.22-1.03-2.62-1.03-4.22s.35-3,1.05-4.22c.7-1.22,1.66-2.16,2.88-2.83,1.22-.66,2.58-1,4.08-1s2.86.33,4.08,1c1.22.67,2.18,1.61,2.88,2.83.7,1.22,1.05,2.62,1.05,4.22s-.36,3-1.08,4.22c-.72,1.22-1.7,2.16-2.92,2.83-1.23.66-2.6,1-4.12,1s-2.85-.33-4.05-1"/><polygon class="cls-1" points="54.89 15.87 58.82 3.92 63.01 3.92 57.25 19.5 52.47 19.5 46.74 3.92 50.95 3.92 54.89 15.87"/><path class="cls-1" d="M.98,7.34c.66-1.21,1.57-2.15,2.73-2.81,1.16-.66,2.49-1,3.99-1,1.93,0,3.53.48,4.79,1.45,1.27.97,2.11,2.32,2.54,4.06h-4.24c-.23-.67-.6-1.2-1.14-1.59-.53-.38-1.2-.58-1.98-.58-1.12,0-2.02.41-2.67,1.22-.66.82-.98,1.97-.98,3.47s.33,2.63.98,3.44c.66.82,1.55,1.22,2.67,1.22,1.59,0,2.63-.71,3.12-2.14h4.24c-.43,1.69-1.28,3.03-2.56,4.02-1.27.99-2.87,1.49-4.78,1.49-1.5,0-2.83-.33-3.99-1-1.16-.66-2.07-1.6-2.73-2.81s-.98-2.62-.98-4.23.33-3.02.98-4.23"/><path class="cls-1" d="M25.89,15.62c.63-.35,1.13-.87,1.5-1.56.37-.69.56-1.54.56-2.53,0-1.48-.39-2.62-1.17-3.42-.78-.8-1.73-1.2-2.85-1.2s-2.07.4-2.83,1.2c-.76.8-1.14,1.94-1.14,3.42s.37,2.62,1.11,3.42c.74.8,1.67,1.2,2.8,1.2.71,0,1.38-.17,2.01-.52M19.83,18.57c-1.2-.66-2.14-1.61-2.83-2.83-.68-1.22-1.03-2.62-1.03-4.22s.35-3,1.05-4.22c.7-1.22,1.66-2.16,2.88-2.83,1.22-.66,2.58-1,4.08-1s2.86.33,4.08,1c1.22.67,2.18,1.61,2.88,2.83.7,1.22,1.06,2.62,1.06,4.22s-.36,3-1.08,4.22c-.72,1.22-1.7,2.16-2.92,2.83-1.23.66-2.6,1-4.12,1s-2.85-.33-4.05-1"/><path class="cls-1" d="M46.08,5.42c1.14,1.17,1.71,2.81,1.71,4.91v9.14h-3.94v-8.6c0-1.24-.31-2.19-.93-2.85-.62-.66-1.46-1-2.53-1s-1.95.33-2.57,1c-.63.67-.94,1.62-.94,2.85v8.6h-3.94V3.89h3.94v1.94c.52-.68,1.19-1.21,2.01-1.59.82-.38,1.71-.58,2.69-.58,1.85,0,3.35.59,4.5,1.76"/></g></svg>