<?xml version="1.0" encoding="UTF-8"?><svg id="Layer_2" xmlns="http://www.w3.org/2000/svg" viewBox="0 0 61.99 29.1"><defs><style>.cls-1{fill:#abe1fa;}</style></defs><g id="Layer_1-2"><polygon class="cls-1" points="15.23 24.87 3.84 28.43 27.41 28.43 28.32 28.14 32.62 26.8 19.53 23.53 15.23 24.87"/><path class="cls-1" d="M32.99,11.12l1.08-.27.51-.13,6.39-1.59,6.69-1.67,6.55-1.64,7.78-1.94V0h-13.69l-13.07,3.27-.23.06h-.52l-1.77-.56-1.51-.47-1.8-.56-5.55-1.73H.28l1.79.56,10.1,3.16,1.51.47,7.92,2.49L0,12.08v4.95l14.85,3.71h0l6.77,1.69,6.7,1.68,5.84,1.46.54.14,13.57,3.39h13.7v-3.87l-14.3-3.59,7.93-2.48,1.5-.47,1.52-.47,3.35-1.05v-5.25l-4.36-1.36-4.21-1.31-13.07,3.27,4.21,1.31,2.31.72-1.72.54-8.55,2.66-2.01.63-1.6-.4c-1.5-.37-2.49-1.49-2.66-2.96h0c-.02-.15-.03-.31-.03-.47,0-1.7,1.02-3.01,2.68-3.43"/></g></svg>